<svg width="500" height="500" viewBox="0 0 500 500" fill="none" xmlns="http://www.w3.org/2000/svg">
<g clip-path="url(#clip0_6_83)">
<g filter="url(#filter0_d_6_83)">
<path d="M17 370.53V141.98C17 138.132 19.2079 134.625 22.678 132.962L245.506 26.1648C248.231 24.8586 251.401 24.855 254.129 26.1549L478.301 132.968C481.783 134.627 484 138.14 484 141.996V370.514C484 374.336 481.822 377.824 478.387 379.5L254.216 488.951C251.439 490.306 248.193 490.303 245.42 488.941L22.5918 379.506C19.1689 377.825 17 374.344 17 370.53Z" fill="#1E272E"/>
</g>
<g filter="url(#filter1_i_6_83)">
<path d="M41 351.568V146.208C41 142.37 43.1965 138.871 46.6529 137.203L245.551 41.1917C248.29 39.8694 251.483 39.8657 254.225 41.1817L454.327 137.209C457.794 138.873 460 142.378 460 146.224V351.552C460 355.363 457.833 358.843 454.413 360.525L254.311 458.923C251.521 460.295 248.252 460.291 245.465 458.913L46.5664 360.531C43.1574 358.845 41 355.371 41 351.568Z" fill="#FF5E57"/>
</g>
<g filter="url(#filter2_d_6_83)">
<mask id="mask0_6_83" style="mask-type:alpha" maskUnits="userSpaceOnUse" x="83" y="9" width="313" height="311">
<mask id="mask1_6_83" style="mask-type:luminance" maskUnits="userSpaceOnUse" x="75" y="9" width="321" height="317">
<path d="M75.6423 9H138.471V189.343H75.6423M75.6423 218.43H138.471V325.473H75.6423M209.445 9H395.606V189.343H209.445M209.445 218.43H395.606V325.473H209.445" fill="white"/>
</mask>
<g mask="url(#mask1_6_83)">
<path d="M235.042 319.655C318.578 319.655 386.298 251.936 386.298 168.4C386.298 84.8638 318.578 17.1445 235.042 17.1445C151.506 17.1445 83.7869 84.8638 83.7869 168.4C83.7869 251.936 151.506 319.655 235.042 319.655Z" fill="#FF5E57"/>
<rect x="293.865" y="-25.6211" width="107.789" height="212.85" fill="#D9D9D9"/>
</g>
</mask>
<g mask="url(#mask0_6_83)">
<path d="M57.8625 319.052H417.452V245.306L411.63 237.332L414.081 180.289C412.04 177.193 410.577 176.416 407.646 175.995V145.327C406.188 143.878 405.08 143.53 402.743 143.487V95.9506C399.216 93.2399 396.858 92.9759 392.63 92.5771V40.7474C390.236 39.6987 388.894 39.5433 386.501 40.7474V24.7998C364.338 17.8215 351.879 13.6358 331.952 24.7998V15.2926C324.372 11.4557 320.231 11.9104 312.951 15.2926V145.604H306.209V122.296L297.629 104.815L290.58 122.296V143.457L163.402 169.667V163.699L154.208 146.218L144.401 163.699V173.583L57.8625 181.793V319.052Z" fill="#FF3F34"/>
</g>
</g>
<path d="M332 246.691V112.099H336.454C347.093 112.099 356 121.141 356 132.508V267.099H351.546C340.66 267.099 332 258.058 332 246.691Z" fill="white"/>
<path d="M210 138.099H233.209V244.946C233.209 246.393 234.405 247.633 236.32 247.839C238.234 248.046 239.909 246.599 239.909 244.946V217.253L262.878 229.239L263.118 245.773C263.118 254.659 254.504 262.099 244.215 262.099H228.902C218.374 262.099 210 254.866 210 245.773V138.099Z" fill="white"/>
<path d="M268.882 152.566C268.882 144.506 276.539 138.099 285.631 138.099H303.098C313.147 138.099 321.761 145.126 322 154.013V193.279C322 197.413 319.847 201.339 316.497 204.233L313.147 207.126L316.497 210.019C319.847 212.913 322 216.839 322 220.973V247.633C322 255.693 314.104 262.099 305.012 262.099H287.785C277.496 262.099 269.122 255.073 268.882 246.186V152.566ZM292.091 155.253V199.066L298.791 202.786V155.253C298.791 153.806 297.355 152.153 295.441 152.153C293.527 152.153 292.091 153.599 292.091 155.253ZM292.091 244.946C292.091 246.599 293.527 247.839 295.441 247.839C297.355 247.839 298.791 246.599 298.791 244.946V219.526L292.091 216.013V244.946Z" fill="white"/>
<path d="M142 132.508C142 121.141 150.986 112.099 162.284 112.099H178.716C189.757 112.099 198.486 120.883 199 131.991V267.099H193.865C182.824 267.099 174.095 258.316 174.095 247.208V213.883L166.905 209.491V267.099H161.77C150.73 267.099 142 258.316 142 247.208V132.508ZM166.905 133.541V188.566L174.095 192.958V133.541C174.095 131.474 172.554 129.666 170.5 129.666C168.446 129.666 166.905 131.474 166.905 133.541Z" fill="white"/>
<g filter="url(#filter3_di_6_83)">
<path d="M500 344C302.3 332.72 193.072 333.868 0 344V273.144C194.692 251.813 304.157 251.425 500 273.144V344Z" fill="#F53B57"/>
</g>
<path d="M118.669 311.873L107 304.873V282.473C107 278.366 110.267 275.099 114.375 275.099H120.349C124.363 275.099 127.724 278.366 127.724 282.473V303.659L118.669 298.339V282.846C118.669 282.006 118.015 281.353 117.269 281.446C116.522 281.539 116.055 282.193 116.055 282.846V302.726L127.724 309.633V323.726C127.724 327.833 124.363 331.099 120.349 331.099H114.375C109.987 331.099 107 327.926 107 323.726V310.846L116.055 316.259V323.353C116.055 323.913 116.428 324.473 116.989 324.659H117.642C118.295 324.473 118.669 323.913 118.669 323.353V311.873Z" fill="white"/>
<path d="M130.064 331.099V281.633C130.064 277.993 133.051 275.099 136.599 275.099C138.279 275.099 139.773 275.473 141.173 276.313L146.214 279.299L151.255 276.313C152.655 275.473 154.242 275.099 155.829 275.099C159.47 275.099 162.364 277.993 162.364 281.633V331.099H160.777C156.669 331.099 153.402 327.833 153.402 323.726V282.846C153.309 282.753 150.788 284.246 150.788 284.246V331.099H141.733V284.246C141.36 283.966 140.986 283.779 140.706 283.779C139.119 283.779 139.119 289.379 139.119 282.846V323.726C139.119 327.833 135.759 331.099 131.745 331.099H130.064Z" fill="white"/>
<path d="M164.706 282.473C164.706 278.366 167.973 275.099 172.081 275.099H178.055C182.069 275.099 185.243 278.273 185.43 282.286V331.099H183.563C179.549 331.099 176.375 327.926 176.375 323.913V311.873L173.761 310.286V331.099H171.894C167.88 331.099 164.706 327.926 164.706 323.913V282.473ZM173.761 282.846V302.726L176.375 304.313V282.846C176.375 282.099 175.815 281.446 175.068 281.446C174.321 281.446 173.761 282.099 173.761 282.846Z" fill="white"/>
<path d="M199.348 311.873L187.679 304.873V282.473C187.679 278.366 190.947 275.099 195.054 275.099H201.028C205.043 275.099 208.403 278.366 208.403 282.473V303.659L199.348 298.339V282.846C199.348 282.006 198.695 281.353 197.948 281.446C197.201 281.539 196.734 282.193 196.734 282.846V302.726L208.403 309.633V323.726C208.403 327.833 205.043 331.099 201.028 331.099H195.054C190.667 331.099 187.679 327.926 187.679 323.726V310.846L196.734 316.259V323.353C196.734 323.913 197.108 324.473 197.668 324.659H198.321C198.975 324.473 199.348 323.913 199.348 323.353V311.873Z" fill="white"/>
<path d="M210.744 275.099H219.799V302.726L222.412 304.313V275.099H224.093C228.107 275.099 231.281 278.273 231.467 282.286V331.099H229.6C225.586 331.099 222.412 327.926 222.412 323.913V311.873L219.799 310.286V331.099H217.278C213.731 331.099 210.744 328.113 210.744 324.566V275.099Z" fill="white"/>
<path d="M243.289 275.099H256.638C260.652 275.099 263.826 278.273 264.013 282.286V302.913L263.919 303.099C263.919 305.526 262.706 307.673 260.839 308.979C262.799 310.193 264.013 312.339 264.013 314.673V331.099H262.332C258.318 331.099 255.051 327.926 254.958 323.913V311.873L252.344 310.286V331.099H250.663C246.556 331.099 243.289 327.833 243.289 323.726V275.099ZM252.344 302.726L254.958 304.313V282.846C254.958 282.099 254.398 281.446 253.651 281.446C252.904 281.446 252.344 282.099 252.344 282.846V302.726Z" fill="white"/>
<path d="M266.262 282.473C266.262 278.366 269.529 275.099 273.637 275.099H279.611C283.625 275.099 286.799 278.273 286.986 282.286V331.099H285.119C281.105 331.099 277.931 327.926 277.931 323.913V311.873L275.317 310.286V331.099H273.45C269.436 331.099 266.262 327.926 266.262 323.913V282.473ZM275.317 282.846V302.726L277.931 304.313V282.846C277.931 282.099 277.371 281.446 276.624 281.446C275.877 281.446 275.317 282.099 275.317 282.846Z" fill="white"/>
<path d="M289.235 282.473C289.235 278.366 292.502 275.099 296.61 275.099H302.584C306.598 275.099 309.772 278.273 309.959 282.286V331.099H308.092C304.078 331.099 300.904 327.926 300.904 323.913V281.446H298.29V331.099H296.61C292.502 331.099 289.235 327.833 289.235 323.726V282.473Z" fill="white"/>
<path d="M312.208 323.726V275.099H321.263V302.633L323.877 304.313V282.286C323.97 278.273 327.238 275.099 331.252 275.099H332.932V300.019C332.932 301.886 332.092 303.659 330.785 304.966L329.478 306.273L330.785 307.579C332.092 308.886 332.932 310.659 332.932 312.526V331.099H331.252C327.238 331.099 323.97 327.926 323.877 323.913V311.873L321.263 310.286V331.099H319.583C315.475 331.099 312.208 327.833 312.208 323.726Z" fill="white"/>
<path d="M336.115 323.726V275.099H337.795C341.809 275.099 345.17 278.366 345.17 282.473V331.099H343.489C339.382 331.099 336.115 327.833 336.115 323.726Z" fill="white"/>
<path d="M346.303 282.473C346.303 278.366 349.57 275.099 353.678 275.099H359.652C363.666 275.099 366.84 278.273 367.027 282.286V331.099H365.16C361.146 331.099 357.972 327.926 357.972 323.913V281.446H355.358V331.099H353.678C349.57 331.099 346.303 327.833 346.303 323.726V282.473Z" fill="white"/>
<path d="M369.276 282.473C369.276 278.366 372.543 275.099 376.651 275.099H382.625C386.639 275.099 390 278.366 390 282.473V295.353L380.945 289.939V282.846C380.945 282.099 380.385 281.539 379.638 281.539C378.891 281.539 378.331 282.099 378.331 282.846V294.326L388.226 300.299C389.253 300.859 390 302.073 390 303.286V323.726C390 327.833 386.639 331.099 382.625 331.099H376.651C372.543 331.099 369.276 327.833 369.276 323.726V282.473ZM380.945 303.473L378.331 301.886V323.353C378.331 324.006 378.798 324.566 379.545 324.659C380.292 324.753 380.945 324.099 380.945 323.353V303.473Z" fill="white"/>
<path d="M250.5 350.099L255.776 365.992H272.85L259.037 375.814L264.313 391.707L250.5 381.885L236.687 391.707L241.963 375.814L228.15 365.992H245.224L250.5 350.099Z" fill="#FFD32A"/>
<path d="M215.5 364.099L219.204 375.155H231.192L221.494 381.988L225.198 393.044L215.5 386.211L205.802 393.044L209.506 381.988L199.808 375.155H211.796L215.5 364.099Z" fill="#FFD32A"/>
<path d="M286.5 364.099L290.204 375.155H302.192L292.494 381.988L296.198 393.044L286.5 386.211L276.802 393.044L280.506 381.988L270.808 375.155H282.796L286.5 364.099Z" fill="#FFD32A"/>
<path d="M226.5 396.099L229.082 404.046H237.437L230.678 408.957L233.26 416.903L226.5 411.992L219.74 416.903L222.322 408.957L215.563 404.046H223.918L226.5 396.099Z" fill="#FFD32A"/>
<path d="M275.5 396.099L278.082 404.046H286.437L279.678 408.957L282.26 416.903L275.5 411.992L268.74 416.903L271.322 408.957L264.563 404.046H272.918L275.5 396.099Z" fill="#FFD32A"/>
<path d="M251 408.099L252.796 413.282H258.608L253.906 416.485L255.702 421.667L251 418.464L246.298 421.667L248.094 416.485L243.392 413.282H249.204L251 408.099Z" fill="#FFD32A"/>
</g>
<defs>
<filter id="filter0_d_6_83" x="14.2" y="25.1825" width="472.6" height="471.582" filterUnits="userSpaceOnUse" color-interpolation-filters="sRGB">
<feFlood flood-opacity="0" result="BackgroundImageFix"/>
<feColorMatrix in="SourceAlpha" type="matrix" values="0 0 0 0 0 0 0 0 0 0 0 0 0 0 0 0 0 0 127 0" result="hardAlpha"/>
<feOffset dy="4"/>
<feGaussianBlur stdDeviation="1.4"/>
<feComposite in2="hardAlpha" operator="out"/>
<feColorMatrix type="matrix" values="0 0 0 0 0 0 0 0 0 0 0 0 0 0 0 0 0 0 0.25 0"/>
<feBlend mode="normal" in2="BackgroundImageFix" result="effect1_dropShadow_6_83"/>
<feBlend mode="normal" in="SourceGraphic" in2="effect1_dropShadow_6_83" result="shape"/>
</filter>
<filter id="filter1_i_6_83" x="41" y="34.1974" width="425" height="425.752" filterUnits="userSpaceOnUse" color-interpolation-filters="sRGB">
<feFlood flood-opacity="0" result="BackgroundImageFix"/>
<feBlend mode="normal" in="SourceGraphic" in2="BackgroundImageFix" result="shape"/>
<feColorMatrix in="SourceAlpha" type="matrix" values="0 0 0 0 0 0 0 0 0 0 0 0 0 0 0 0 0 0 127 0" result="hardAlpha"/>
<feOffset dx="6" dy="-10"/>
<feGaussianBlur stdDeviation="3"/>
<feComposite in2="hardAlpha" operator="arithmetic" k2="-1" k3="1"/>
<feColorMatrix type="matrix" values="0 0 0 0 0 0 0 0 0 0 0 0 0 0 0 0 0 0 0.25 0"/>
<feBlend mode="normal" in2="shape" result="effect1_innerShadow_6_83"/>
</filter>
<filter id="filter2_d_6_83" x="61.3869" y="-9.81724" width="356.619" height="351.269" filterUnits="userSpaceOnUse" color-interpolation-filters="sRGB">
<feFlood flood-opacity="0" result="BackgroundImageFix"/>
<feColorMatrix in="SourceAlpha" type="matrix" values="0 0 0 0 0 0 0 0 0 0 0 0 0 0 0 0 0 0 127 0" result="hardAlpha"/>
<feOffset/>
<feGaussianBlur stdDeviation="11.2"/>
<feComposite in2="hardAlpha" operator="out"/>
<feColorMatrix type="matrix" values="0 0 0 0 0 0 0 0 0 0 0 0 0 0 0 0 0 0 0.5 0"/>
<feBlend mode="normal" in2="BackgroundImageFix" result="effect1_dropShadow_6_83"/>
<feBlend mode="normal" in="SourceGraphic" in2="effect1_dropShadow_6_83" result="shape"/>
</filter>
<filter id="filter3_di_6_83" x="0" y="257" width="500" height="95" filterUnits="userSpaceOnUse" color-interpolation-filters="sRGB">
<feFlood flood-opacity="0" result="BackgroundImageFix"/>
<feColorMatrix in="SourceAlpha" type="matrix" values="0 0 0 0 0 0 0 0 0 0 0 0 0 0 0 0 0 0 127 0" result="hardAlpha"/>
<feOffset dy="8"/>
<feComposite in2="hardAlpha" operator="out"/>
<feColorMatrix type="matrix" values="0 0 0 0 0.117647 0 0 0 0 0.152941 0 0 0 0 0.180392 0 0 0 1 0"/>
<feBlend mode="normal" in2="BackgroundImageFix" result="effect1_dropShadow_6_83"/>
<feBlend mode="normal" in="SourceGraphic" in2="effect1_dropShadow_6_83" result="shape"/>
<feColorMatrix in="SourceAlpha" type="matrix" values="0 0 0 0 0 0 0 0 0 0 0 0 0 0 0 0 0 0 127 0" result="hardAlpha"/>
<feOffset dy="8"/>
<feComposite in2="hardAlpha" operator="arithmetic" k2="-1" k3="1"/>
<feColorMatrix type="matrix" values="0 0 0 0 0.937255 0 0 0 0 0.341176 0 0 0 0 0.466667 0 0 0 1 0"/>
<feBlend mode="normal" in2="shape" result="effect2_innerShadow_6_83"/>
</filter>
<clipPath id="clip0_6_83">
<rect width="500" height="500" fill="white"/>
</clipPath>
</defs>
</svg>
